# Blender v2.76 (sub 0) OBJ File: 'onesword.blend'
# www.blender.org
mtllib onesword.mtl
o Cube_Cube.001
v 0.016163 0.395120 -9.175432
v -0.002702 0.395747 -9.175432
v 0.777352 0.107384 4.302080
v -0.002702 -0.153376 4.302080
v -0.023725 0.394430 -9.175432
v -0.002702 0.393112 -9.175432
v -0.871989 0.394430 4.332350
v -0.002702 0.942235 4.302080
v 0.866586 0.394430 4.302080
v 0.254623 -0.116723 4.302080
v 0.018321 0.394430 -9.175432
v 0.254623 0.905583 4.302080
v 0.003522 0.395659 -9.175432
v -0.260026 -0.116723 4.302080
v 0.003522 0.393201 -9.175432
v -0.260026 0.343600 0.751383
v -0.260026 0.445260 0.751383
v -0.008925 0.395659 -9.175432
v 0.254623 0.343600 0.751383
v 0.254623 0.445260 0.751383
v 0.866586 0.394430 0.751383
v -0.260026 0.905583 4.302080
v -0.002702 0.339955 0.751383
v -0.871989 0.394430 0.751383
v -0.008925 0.393201 -9.175432
v -0.002702 0.448904 0.751383
v -0.260026 0.905583 3.711811
v -0.260026 -0.116723 3.711811
v -0.260026 0.343600 -7.320703
v 0.254623 0.905583 3.711811
v -0.260026 0.445260 -7.320703
v 0.254623 -0.116723 3.711811
v 0.254623 0.343600 -7.320703
v 0.254623 0.445260 -7.320703
v 0.866586 0.394430 3.711811
v 0.866586 0.394430 -7.320703
v -0.002702 0.942235 3.711811
v -0.002702 0.339955 -7.320703
v -0.871989 0.394430 3.711811
v -0.002702 -0.153376 3.711811
v -0.871989 0.394430 -7.320703
v 0.777352 0.107384 3.711811
v -0.002702 0.448904 -7.320703
v 0.777352 0.681476 3.711811
v 0.777352 0.422974 -7.320703
v -0.146713 0.936821 3.711811
v 0.777352 0.365886 -7.320703
v -0.146713 0.340494 -7.320703
v 0.141310 0.340494 -7.320703
v 0.141310 0.936821 3.711811
v 0.777352 0.422974 0.751383
v 0.777352 0.365886 0.751383
v -0.782756 0.422974 -7.320703
v -0.782756 0.107384 3.711811
v -0.782756 0.681476 3.711811
v 0.141310 -0.147961 3.711811
v -0.146713 -0.147961 3.711811
v -0.146713 0.448366 3.085217
v -0.146713 0.340494 0.751383
v 0.141310 0.340494 0.751383
v 0.141310 0.448366 3.085217
v -0.782756 0.365886 -7.320703
v -0.782756 0.422974 0.751383
v -0.782756 0.365886 0.751383
v -0.782756 0.365886 3.085217
v 0.141310 0.448366 -7.320703
v -0.146713 0.448366 -7.320703
v -0.146713 0.448366 -1.040655
v 0.141310 0.448366 -1.040655
v -0.782756 0.365886 -1.040655
v 0.141310 0.448366 0.751383
v -0.146713 0.448366 0.751383
v -0.782756 0.422974 3.085217
v -0.782756 0.422974 -1.040655
v 0.141310 0.340494 -1.040655
v 0.141310 0.340494 3.085217
v -0.146713 0.340494 3.085217
v -0.146713 0.340494 -1.040655
v 0.777352 0.365886 -1.040655
v 0.777352 0.422974 -1.040655
v -0.002702 0.448904 -1.040655
v 0.777352 0.365886 3.085217
v 0.777352 0.422974 3.085217
v -0.871989 0.394430 -1.040655
v -0.002702 0.448904 3.085217
v -0.871989 0.394430 3.085217
v -0.002702 0.339955 3.085217
v 0.866586 0.394430 3.085217
v 0.254623 0.445260 3.085217
v 0.254623 0.343600 3.085217
v -0.002702 0.339955 -1.040655
v 0.866586 0.394430 -1.040655
v -0.260026 0.445260 3.085217
v -0.260026 0.343600 3.085217
v 0.254623 0.445260 -1.040655
v 0.254623 0.343600 -1.040655
v -0.260026 0.445260 -1.040655
v -0.260026 0.343600 -1.040655
v 0.016163 0.393740 -9.175432
v -0.006184 0.393125 -9.175432
v 0.000781 0.393125 -9.175432
v -0.021566 0.395120 -9.175432
v -0.021566 0.393740 -9.175432
v 0.000781 0.395734 -9.175432
v -0.006184 0.395734 -9.175432
v 0.777352 0.681476 4.302080
v -0.146713 0.936821 4.302080
v 0.141310 0.936821 4.302080
v -0.782756 0.107384 4.332350
v -0.782756 0.681476 4.332350
v 0.141310 -0.147961 4.302080
v -0.146713 -0.147961 4.302080
v 0.552566 0.210151 4.356566
v 0.051785 0.042748 4.356566
v -0.506283 0.394430 4.356566
v 0.051785 0.746112 4.356566
v 0.609852 0.394430 4.356566
v 0.216983 0.066278 4.356566
v 0.216983 0.722582 4.356566
v -0.113413 0.066278 4.356566
v -0.113413 0.722582 4.356566
v 0.552566 0.578708 4.356566
v -0.040668 0.742636 4.356566
v 0.144238 0.742636 4.356566
v -0.448996 0.210151 4.356566
v -0.448996 0.578708 4.356566
v 0.144238 0.046224 4.356566
v -0.040668 0.046224 4.356566
v 0.529592 0.218605 5.110295
v 0.051785 0.058882 5.110295
v -0.480681 0.394430 5.110295
v 0.051785 0.729978 5.110295
v 0.584250 0.394430 5.110295
v 0.209404 0.081333 5.110295
v 0.209404 0.707527 5.110295
v -0.105834 0.081333 5.110295
v -0.105834 0.707527 5.110295
v 0.529592 0.570254 5.110295
v -0.036427 0.726661 5.110295
v 0.139996 0.726661 5.110295
v -0.426022 0.218605 5.110295
v -0.426022 0.570254 5.110295
v 0.139996 0.062199 5.110295
v -0.036427 0.062199 5.110295
v 0.529592 0.218605 7.326075
v 0.051785 0.058882 7.326075
v -0.480681 0.394430 7.326075
v 0.051785 0.729978 7.326075
v 0.584250 0.394430 7.326075
v 0.209404 0.081333 7.326075
v 0.209404 0.707527 7.326075
v -0.105834 0.081333 7.326075
v -0.105834 0.707527 7.326075
v 0.529592 0.570254 7.326075
v -0.036427 0.726661 7.326075
v 0.139996 0.726661 7.326075
v -0.426022 0.218605 7.326075
v -0.426022 0.570254 7.326075
v 0.139996 0.062199 7.326075
v -0.036427 0.062199 7.326075
v 0.585209 0.198139 7.402355
v 0.051785 0.019824 7.402355
v -0.542660 0.394430 7.402355
v 0.051785 0.769036 7.402355
v 0.646229 0.394430 7.402355
v 0.227751 0.044888 7.402355
v 0.227751 0.743972 7.402355
v -0.124181 0.044888 7.402355
v -0.124181 0.743972 7.402355
v 0.585209 0.590720 7.402355
v -0.046694 0.765333 7.402355
v 0.150264 0.765333 7.402355
v -0.481639 0.198139 7.402355
v -0.481639 0.590720 7.402355
v 0.150264 0.023527 7.402355
v -0.046694 0.023527 7.402355
v 0.585209 0.198139 8.132473
v 0.051785 0.019824 8.132473
v -0.542660 0.394430 8.132473
v 0.051785 0.769036 8.132473
v 0.646229 0.394430 8.132473
v 0.227751 0.044888 8.132473
v 0.227751 0.743972 8.132473
v -0.124181 0.044888 8.132473
v -0.124181 0.743972 8.132473
v 0.585209 0.590720 8.132473
v -0.046694 0.765333 8.132473
v 0.150264 0.765333 8.132473
v -0.481639 0.198139 8.132473
v -0.481639 0.590720 8.132473
v 0.150264 0.023527 8.132473
v -0.046694 0.023527 8.132473
v 0.535348 0.216487 8.197857
v 0.051785 0.054839 8.197857
v -0.487096 0.394430 8.197857
v 0.051785 0.734020 8.197857
v 0.590665 0.394430 8.197857
v 0.211303 0.077561 8.197857
v 0.211303 0.711299 8.197857
v -0.107733 0.077561 8.197857
v -0.107733 0.711299 8.197857
v 0.535348 0.572373 8.197857
v -0.037489 0.730664 8.197857
v 0.141059 0.730664 8.197857
v -0.431779 0.216487 8.197857
v -0.431779 0.572373 8.197857
v 0.141059 0.058196 8.197857
v -0.037489 0.058196 8.197857
v 1.201135 0.107384 4.377756
v 1.290369 0.394430 4.377756
v 1.290369 0.394430 3.787486
v 1.201135 0.107384 3.787486
v 1.201135 0.681476 3.787486
v 1.201135 0.681476 4.377756
v 1.882015 0.178485 4.486272
v 1.949146 0.394430 4.486272
v 1.949146 0.394430 4.042212
v 1.882015 0.178485 4.042212
v 1.882015 0.610375 4.042212
v 1.882015 0.610375 4.486272
v -1.167124 0.394430 4.377756
v -1.167124 0.394430 3.787486
v -1.077890 0.107384 3.787486
v -1.077890 0.681476 3.787486
v -1.077890 0.107384 4.377756
v -1.077890 0.681476 4.377756
v -1.884155 0.394430 4.482501
v -1.884155 0.394430 4.061120
v -1.820454 0.189514 4.061120
v -1.820454 0.599346 4.061120
v -1.820454 0.189514 4.482501
v -1.820454 0.599346 4.482501
vt 0.578168 0.863987
vt 0.587533 0.863987
vt 0.498512 0.956693
vt 0.498286 0.956693
vt 0.481193 0.863987
vt 0.469302 0.863987
vt 0.495653 0.956693
vt 0.495941 0.956693
vt 0.511419 0.863987
vt 0.523311 0.863987
vt 0.496959 0.956693
vt 0.496672 0.956693
vt 0.496306 0.863987
vt 0.496306 0.956693
vt 0.523311 0.312537
vt 0.578168 0.312537
vt 0.578168 0.283033
vt 0.523311 0.283033
vt 0.496306 0.312537
vt 0.511419 0.312537
vt 0.511419 0.283033
vt 0.496306 0.283033
vt 0.511419 0.460511
vt 0.523311 0.460511
vt 0.523311 0.550085
vt 0.511419 0.550085
vt 0.481193 0.460511
vt 0.469302 0.460511
vt 0.469302 0.550085
vt 0.481193 0.550085
vt 0.414444 0.343857
vt 0.405080 0.343857
vt 0.405080 0.312537
vt 0.414444 0.312537
vt 0.374107 0.308755
vt 0.383472 0.308755
vt 0.469302 0.343857
vt 0.481193 0.343857
vt 0.481193 0.312537
vt 0.469302 0.312537
vt 0.511419 0.343857
vt 0.523311 0.343857
vt 0.578168 0.460511
vt 0.578168 0.343857
vt 0.496306 0.460511
vt 0.496306 0.343857
vt 0.587533 0.460511
vt 0.587533 0.343857
vt 0.578168 0.550085
vt 0.587533 0.550085
vt 0.481193 0.283033
vt 0.414444 0.281520
vt 0.469302 0.283033
vt 0.405080 0.460511
vt 0.414444 0.460511
vt 0.405080 0.550085
vt 0.414444 0.550085
vt 0.414444 0.863987
vt 0.405080 0.863987
vt 0.494326 0.956693
vt 0.496306 0.550085
vt 0.494100 0.956693
vt 0.587533 0.312537
vt 0.632006 0.308755
vt 0.622642 0.308755
vt 0.622642 0.279251
vt 0.383472 0.279251
vt 0.492322 0.280310
vt 0.502024 0.280310
vt 0.511727 0.280310
vt 0.405080 0.281520
vt 0.443459 0.280310
vt 0.449470 0.280310
vt 0.484688 0.280310
vt 0.587533 0.283033
vt 0.560590 0.280310
vt 0.554578 0.280310
vt 0.519361 0.280310
vt 0.451881 0.242635
vt 0.485483 0.242635
vt 0.502024 0.242635
vt 0.492767 0.242635
vt 0.552167 0.242635
vt 0.518565 0.242635
vt 0.557903 0.242635
vt 0.446145 0.242635
vt 0.511281 0.242635
vt 0.485483 0.131882
vt 0.451881 0.131882
vt 0.518565 0.131882
vt 0.511281 0.131882
vt 0.492767 0.131882
vt 0.502024 0.131882
vt 0.446145 0.131882
vt 0.552167 0.131882
vt 0.557903 0.131882
vt 0.564408 0.128069
vt 0.558004 0.128069
vt 0.491689 0.128069
vt 0.483558 0.128069
vt 0.520491 0.128069
vt 0.512359 0.128069
vt 0.502024 0.128069
vt 0.446045 0.128069
vt 0.439641 0.128069
vt 0.446045 0.091575
vt 0.483558 0.091575
vt 0.502024 0.091575
vt 0.491689 0.091575
vt 0.558004 0.091575
vt 0.520491 0.091575
vt 0.564408 0.091575
vt 0.439641 0.091575
vt 0.512359 0.091575
vt 0.485284 0.088307
vt 0.451277 0.088307
vt 0.518765 0.088307
vt 0.511393 0.088307
vt 0.492656 0.088307
vt 0.502024 0.088307
vt 0.445472 0.088307
vt 0.552771 0.088307
vt 0.558577 0.088307
vt 0.694096 0.296022
vt 0.701141 0.296022
vt 0.694096 0.273827
vt 0.632006 0.279251
vt 0.701141 0.273827
vt 0.374107 0.279251
vt 0.305544 0.274015
vt 0.298859 0.274015
vt 0.305544 0.295077
vt 0.298859 0.295077
vn -0.301800 0.943300 0.138000
vn 0.027400 -0.999200 0.030400
vn -0.027400 0.999200 0.030400
vn -0.003700 -0.999600 0.028600
vn 0.394000 -0.919100 0.000000
vn 0.037600 -0.999300 0.000000
vn -0.027400 0.999600 0.000000
vn 0.027400 -0.999600 0.000000
vn -0.814600 0.562400 -0.141600
vn -0.247600 0.077000 -0.965800
vn -0.090800 -0.731300 -0.676000
vn 0.090800 -0.731300 -0.676000
vn -0.042600 0.999100 0.000000
vn -0.003700 1.000000 0.000000
vn 0.027400 0.999600 0.000000
vn 0.003700 -1.000000 0.000000
vn -0.304700 0.952500 0.000000
vn -0.003700 0.999600 0.028600
vn -0.304700 -0.952500 0.000000
vn 0.003700 1.000000 0.000000
vn -0.042600 0.998600 0.032500
vn -0.042600 -0.998600 0.032500
vn 0.037600 0.999300 0.000000
vn -0.037600 -0.999300 0.000000
vn -0.042600 -0.999100 0.000000
vn -0.394000 0.919100 0.000000
vn -0.265800 0.964000 0.000000
vn 0.304700 -0.952500 0.000000
vn 0.304700 0.952500 0.000000
vn 0.042600 0.998600 0.032500
vn 0.042600 -0.998600 0.032500
vn -0.003700 -1.000000 0.000000
vn 0.301800 0.943300 0.138000
vn -0.301800 -0.943300 0.138000
vn 0.156200 0.809100 -0.566600
vn 0.175500 -0.054600 -0.983000
vn -0.027400 -0.999600 0.000000
vn 0.394000 0.919100 0.000000
vn -0.156200 0.809100 -0.566600
vn -0.027400 -0.999200 0.030400
vn 0.012200 0.722600 -0.691100
vn 0.265800 0.964000 0.000000
vn 0.265800 -0.964000 0.000000
vn -0.814600 -0.562400 -0.141600
vn 0.042600 0.999100 0.000000
vn 0.090800 0.731300 -0.676000
vn -0.156200 -0.809100 -0.566600
vn -0.394000 -0.919100 0.000000
vn 0.814600 -0.562400 -0.141600
vn -0.265800 -0.964000 0.000000
vn -0.012200 -0.722600 -0.691100
vn 0.000000 1.000000 0.000000
vn 0.012200 -0.722600 -0.691100
vn -0.090800 0.731300 -0.676000
vn 0.042600 -0.999100 0.000000
vn 0.027400 0.999200 0.030400
vn 0.003700 -0.999600 0.028600
vn 0.156200 -0.809100 -0.566600
vn -0.037600 0.999300 0.000000
vn 0.814600 0.562400 -0.141600
vn -0.012200 0.722600 -0.691100
vn 0.003700 0.999600 0.028600
vn 0.301800 -0.943300 0.138000
vn -0.010000 0.265100 0.964200
vn 0.010200 0.270300 0.962700
vn 0.010200 -0.270300 0.962700
vn -0.066100 0.020500 0.997600
vn -0.047200 0.190700 0.980500
vn -0.010000 -0.265100 0.964200
vn -0.065200 -0.236400 0.969500
vn 0.207200 -0.064400 0.976200
vn 0.112400 -0.262200 0.958400
vn 0.207200 0.064400 0.976200
vn 0.112400 0.262200 0.958400
vn -0.065200 0.236400 0.969500
vn 0.074600 0.270400 0.959800
vn -0.066100 -0.020500 0.997600
vn -0.047200 -0.190700 0.980500
vn 0.074600 -0.270400 0.959800
vn -0.393900 0.918900 0.022300
vn -0.037600 -0.999100 0.021400
vn 0.393900 -0.918900 0.022300
vn 0.954400 0.296700 0.032400
vn -0.954400 -0.296700 0.032400
vn 0.954400 -0.296700 0.032400
vn -0.265700 -0.963800 0.021900
vn -0.265700 0.963800 0.021900
vn 0.393900 0.918900 0.022300
vn 0.037600 -0.999100 0.021400
vn -0.393900 -0.918900 0.022300
vn 0.265700 -0.963800 0.021900
vn 0.265700 0.963800 0.021900
vn -0.037600 0.999100 0.021400
vn 0.037600 0.999100 0.021400
vn -0.954400 0.296700 0.032400
vn -0.954900 0.296900 0.000000
vn 0.954900 0.296900 0.000000
vn -0.954900 -0.296900 0.000000
vn 0.954900 -0.296900 0.000000
vn 0.754500 -0.234500 -0.613000
vn -0.235400 -0.853700 -0.464500
vn -0.235400 0.853700 -0.464500
vn 0.347600 0.810800 -0.471000
vn 0.033400 -0.889600 -0.455500
vn -0.347600 -0.810800 -0.471000
vn 0.235400 -0.853700 -0.464500
vn 0.235400 0.853700 -0.464500
vn -0.033400 0.889600 -0.455500
vn 0.033400 0.889600 -0.455500
vn -0.754500 0.234500 -0.613000
vn -0.347600 0.810800 -0.471000
vn -0.033400 -0.889600 -0.455500
vn 0.347600 -0.810800 -0.471000
vn 0.754500 0.234500 -0.613000
vn -0.754500 -0.234500 -0.613000
vn -0.344000 -0.802500 0.487500
vn 0.233000 -0.845200 0.481000
vn 0.233000 0.845200 0.481000
vn -0.033100 0.881100 0.471800
vn 0.033100 0.881100 0.471800
vn -0.741500 0.230500 0.630100
vn -0.344000 0.802500 0.487500
vn -0.033100 -0.881100 0.471800
vn 0.344000 -0.802500 0.487500
vn 0.741500 0.230500 0.630100
vn -0.741500 -0.230500 0.630100
vn 0.741500 -0.230500 0.630100
vn -0.233000 -0.845200 0.481000
vn -0.233000 0.845200 0.481000
vn 0.344000 0.802500 0.487500
vn 0.033100 -0.881100 0.471800
vn 0.358400 0.111400 -0.926900
vn 0.103900 0.994600 0.000000
vn -0.175500 0.054600 0.983000
vn 0.000000 -1.000000 0.000000
vn -0.175500 -0.054600 0.983000
vn 0.175500 0.054600 -0.983000
vn -0.162300 0.050500 0.985400
vn 0.358400 -0.111400 -0.926900
vn 0.103900 -0.994600 0.000000
vn -0.162300 -0.050500 0.985400
vn 0.144400 -0.044900 0.988500
vn -0.109900 -0.993900 0.000000
vn -0.247600 -0.077000 -0.965800
vn 0.151900 0.047200 0.987300
vn 0.151900 -0.047200 0.987300
vn -0.109900 0.993900 0.000000
vn -0.354400 0.110200 -0.928600
vn 0.144400 0.044900 0.988500
vn -0.354400 -0.110200 -0.928600
usemtl Material.001
s off
f 47/1/1 36/2/1 11/3/1 99/4/1
f 67/5/2 31/6/2 18/7/2 105/8/2
f 49/9/3 33/10/3 15/11/3 101/12/3
f 66/9/4 43/13/4 2/14/4 104/12/4
f 32/15/5 42/16/5 3/17/5 10/18/5
f 40/19/6 56/20/6 111/21/6 4/22/6
f 60/23/7 19/24/7 96/25/7 75/26/7
f 72/27/8 17/28/8 97/29/8 68/30/8
f 65/31/9 86/32/9 39/33/9 55/34/9
f 55/34/10 39/33/10 222/35/10 224/36/10
f 93/37/11 58/38/11 57/39/11 28/40/11
f 61/41/12 89/42/12 32/15/12 56/20/12
f 52/43/13 19/24/13 90/42/13 82/44/13
f 60/23/14 23/45/14 87/46/14 76/41/14
f 98/29/15 78/30/15 48/5/15 29/6/15
f 72/27/16 26/45/16 85/46/16 58/38/16
f 21/47/17 52/43/17 82/44/17 88/48/17
f 79/49/17 92/50/17 36/2/17 47/1/17
f 38/13/18 49/9/18 101/12/18 6/14/18
f 92/50/19 80/49/19 45/1/19 36/2/19
f 75/26/7 96/25/7 33/10/7 49/9/7
f 23/45/20 59/27/20 77/38/20 87/46/20
f 59/27/15 16/28/15 94/37/15 77/38/15
f 33/10/21 47/1/21 99/4/21 15/11/21
f 16/28/15 59/27/15 78/30/15 98/29/15
f 19/24/13 52/43/13 79/49/13 96/25/13
f 45/1/22 34/10/22 13/11/22 1/4/22
f 50/20/23 37/19/23 8/22/23 108/21/23
f 57/39/24 40/19/24 4/22/24 112/51/24
f 20/24/25 51/43/25 83/44/25 89/42/25
f 27/40/26 55/34/26 110/52/26 22/53/26
f 46/39/27 27/40/27 22/53/27 107/51/27
f 24/54/28 63/55/28 73/31/28 86/32/28
f 68/30/8 97/29/8 31/6/8 67/5/8
f 84/56/29 70/57/29 62/58/29 41/59/29
f 62/58/30 29/6/30 25/7/30 103/60/30
f 80/49/25 95/25/25 34/10/25 45/1/25
f 31/6/31 53/58/31 102/60/31 18/7/31
f 69/26/32 81/61/32 43/13/32 66/9/32
f 41/59/33 62/58/33 103/60/33 5/62/33
f 74/57/28 84/56/28 41/59/28 53/58/28
f 78/30/20 91/61/20 38/13/20 48/5/20
f 52/43/17 21/47/17 92/50/17 79/49/17
f 26/45/16 72/27/16 68/30/16 81/61/16
f 36/2/34 45/1/34 1/4/34 11/3/34
f 82/44/35 90/42/35 30/15/35 44/16/35
f 42/16/36 35/63/36 211/64/36 212/65/36
f 71/23/37 20/24/37 89/42/37 61/41/37
f 44/16/38 30/15/38 12/18/38 106/17/38
f 94/37/39 65/31/39 55/34/39 27/40/39
f 26/45/32 71/23/32 61/41/32 85/46/32
f 23/45/14 60/23/14 75/26/14 91/61/14
f 59/27/20 23/45/20 91/61/20 78/30/20
f 34/10/40 66/9/40 104/12/40 13/11/40
f 76/41/41 87/46/41 37/19/41 50/20/41
f 30/15/42 50/20/42 108/21/42 12/18/42
f 19/24/7 60/23/7 76/41/7 90/42/7
f 56/20/43 32/15/43 10/18/43 111/21/43
f 86/32/44 73/31/44 54/34/44 39/33/44
f 16/28/45 64/55/45 65/31/45 94/37/45
f 90/42/46 76/41/46 50/20/46 30/15/46
f 73/31/47 93/37/47 28/40/47 54/34/47
f 54/34/48 28/40/48 14/53/48 109/52/48
f 83/44/49 88/48/49 35/63/49 42/16/49
f 28/40/50 57/39/50 112/51/50 14/53/50
f 58/38/51 85/46/51 40/19/51 57/39/51
f 44/16/52 106/17/52 214/66/52 213/65/52
f 85/46/53 61/41/53 56/20/53 40/19/53
f 77/38/54 94/37/54 27/40/54 46/39/54
f 17/28/8 72/27/8 58/38/8 93/37/8
f 64/55/29 24/54/29 86/32/29 65/31/29
f 110/52/52 55/34/52 224/36/52 226/67/52
f 97/29/55 74/57/55 53/58/55 31/6/55
f 29/6/56 48/5/56 100/8/56 25/7/56
f 17/28/55 63/55/55 74/57/55 97/29/55
f 43/13/57 67/5/57 105/8/57 2/14/57
f 96/25/13 79/49/13 47/1/13 33/10/13
f 21/47/19 51/43/19 80/49/19 92/50/19
f 63/55/55 17/28/55 93/37/55 73/31/55
f 51/43/19 21/47/19 88/48/19 83/44/19
f 89/42/58 83/44/58 42/16/58 32/15/58
f 37/19/59 46/39/59 107/51/59 8/22/59
f 88/48/60 82/44/60 44/16/60 35/63/60
f 87/46/61 77/38/61 46/39/61 37/19/61
f 51/43/25 20/24/25 95/25/25 80/49/25
f 64/55/45 16/28/45 98/29/45 70/57/45
f 81/61/16 68/30/16 67/5/16 43/13/16
f 20/24/37 71/23/37 69/26/37 95/25/37
f 71/23/32 26/45/32 81/61/32 69/26/32
f 91/61/14 75/26/14 49/9/14 38/13/14
f 48/5/62 38/13/62 6/14/62 100/8/62
f 95/25/37 69/26/37 66/9/37 34/10/37
f 70/57/45 98/29/45 29/6/45 62/58/45
f 24/54/29 64/55/29 70/57/29 84/56/29
f 63/55/28 24/54/28 84/56/28 74/57/28
f 53/58/63 41/59/63 5/62/63 102/60/63
f 8/22/64 107/51/64 123/68/64 116/69/64
f 108/21/65 8/22/65 116/69/65 124/70/65
f 4/22/66 111/21/66 127/70/66 114/69/66
f 110/52/67 7/71/67 115/72/67 126/73/67
f 22/53/68 110/52/68 126/73/68 121/74/68
f 112/51/69 4/22/69 114/69/69 128/68/69
f 14/53/70 112/51/70 128/68/70 120/74/70
f 3/17/71 9/75/71 117/76/71 113/77/71
f 10/18/72 3/17/72 113/77/72 118/78/72
f 9/75/73 106/17/73 122/77/73 117/76/73
f 106/17/74 12/18/74 119/78/74 122/77/74
f 107/51/75 22/53/75 121/74/75 123/68/75
f 12/18/76 108/21/76 124/70/76 119/78/76
f 7/71/77 109/52/77 125/73/77 115/72/77
f 109/52/78 14/53/78 120/74/78 125/73/78
f 111/21/79 10/18/79 118/78/79 127/70/79
f 121/74/80 126/73/80 142/79/80 137/80/80
f 128/68/81 114/69/81 130/81/81 144/82/81
f 118/78/82 113/77/82 129/83/82 134/84/82
f 117/76/83 122/77/83 138/83/83 133/85/83
f 115/72/84 125/73/84 141/79/84 131/86/84
f 113/77/85 117/76/85 133/85/85 129/83/85
f 120/74/86 128/68/86 144/82/86 136/80/86
f 123/68/87 121/74/87 137/80/87 139/82/87
f 122/77/88 119/78/88 135/84/88 138/83/88
f 114/69/89 127/70/89 143/87/89 130/81/89
f 125/73/90 120/74/90 136/80/90 141/79/90
f 127/70/91 118/78/91 134/84/91 143/87/91
f 119/78/92 124/70/92 140/87/92 135/84/92
f 116/69/93 123/68/93 139/82/93 132/81/93
f 124/70/94 116/69/94 132/81/94 140/87/94
f 126/73/95 115/72/95 131/86/95 142/79/95
f 141/79/48 136/80/48 152/88/48 157/89/48
f 143/87/43 134/84/43 150/90/43 159/91/43
f 135/84/42 140/87/42 156/91/42 151/90/42
f 132/81/59 139/82/59 155/92/59 148/93/59
f 140/87/23 132/81/23 148/93/23 156/91/23
f 142/79/96 131/86/96 147/94/96 158/89/96
f 137/80/26 142/79/26 158/89/26 153/88/26
f 144/82/24 130/81/24 146/93/24 160/92/24
f 134/84/5 129/83/5 145/95/5 150/90/5
f 133/85/97 138/83/97 154/95/97 149/96/97
f 131/86/98 141/79/98 157/89/98 147/94/98
f 129/83/99 133/85/99 149/96/99 145/95/99
f 136/80/50 144/82/50 160/92/50 152/88/50
f 139/82/27 137/80/27 153/88/27 155/92/27
f 138/83/38 135/84/38 151/90/38 154/95/38
f 130/81/6 143/87/6 159/91/6 146/93/6
f 145/95/100 149/96/100 165/97/100 161/98/100
f 152/88/101 160/92/101 176/99/101 168/100/101
f 155/92/102 153/88/102 169/100/102 171/99/102
f 154/95/103 151/90/103 167/101/103 170/98/103
f 146/93/104 159/91/104 175/102/104 162/103/104
f 157/89/105 152/88/105 168/100/105 173/104/105
f 159/91/106 150/90/106 166/101/106 175/102/106
f 151/90/107 156/91/107 172/102/107 167/101/107
f 148/93/108 155/92/108 171/99/108 164/103/108
f 156/91/109 148/93/109 164/103/109 172/102/109
f 158/89/110 147/94/110 163/105/110 174/104/110
f 153/88/111 158/89/111 174/104/111 169/100/111
f 160/92/112 146/93/112 162/103/112 176/99/112
f 150/90/113 145/95/113 161/98/113 166/101/113
f 149/96/114 154/95/114 170/98/114 165/97/114
f 147/94/115 157/89/115 173/104/115 163/105/115
f 169/100/26 174/104/26 190/106/26 185/107/26
f 176/99/24 162/103/24 178/108/24 192/109/24
f 166/101/5 161/98/5 177/110/5 182/111/5
f 165/97/97 170/98/97 186/110/97 181/112/97
f 163/105/98 173/104/98 189/106/98 179/113/98
f 161/98/99 165/97/99 181/112/99 177/110/99
f 168/100/50 176/99/50 192/109/50 184/107/50
f 171/99/27 169/100/27 185/107/27 187/109/27
f 170/98/38 167/101/38 183/111/38 186/110/38
f 162/103/6 175/102/6 191/114/6 178/108/6
f 173/104/48 168/100/48 184/107/48 189/106/48
f 175/102/43 166/101/43 182/111/43 191/114/43
f 167/101/42 172/102/42 188/114/42 183/111/42
f 164/103/59 171/99/59 187/109/59 180/108/59
f 172/102/23 164/103/23 180/108/23 188/114/23
f 174/104/96 163/105/96 179/113/96 190/106/96
f 189/106/116 184/107/116 200/115/116 205/116/116
f 191/114/117 182/111/117 198/117/117 207/118/117
f 183/111/118 188/114/118 204/118/118 199/117/118
f 180/108/119 187/109/119 203/119/119 196/120/119
f 188/114/120 180/108/120 196/120/120 204/118/120
f 190/106/121 179/113/121 195/121/121 206/116/121
f 185/107/122 190/106/122 206/116/122 201/115/122
f 192/109/123 178/108/123 194/120/123 208/119/123
f 182/111/124 177/110/124 193/122/124 198/117/124
f 181/112/125 186/110/125 202/122/125 197/123/125
f 179/113/126 189/106/126 205/116/126 195/121/126
f 177/110/127 181/112/127 197/123/127 193/122/127
f 184/107/128 192/109/128 208/119/128 200/115/128
f 187/109/129 185/107/129 201/115/129 203/119/129
f 186/110/130 183/111/130 199/117/130 202/122/130
f 178/108/131 191/114/131 207/118/131 194/120/131
f 211/64/132 213/65/132 219/124/132 217/125/132
f 213/65/133 214/66/133 220/126/133 219/124/133
f 9/75/134 3/17/134 209/66/134 210/127/134
f 3/17/135 42/16/135 212/65/135 209/66/135
f 106/17/136 9/75/136 210/127/136 214/66/136
f 35/63/137 44/16/137 213/65/137 211/64/137
f 217/125/97 219/124/97 220/126/97 216/128/97
f 218/124/99 217/125/99 216/128/99 215/126/99
f 210/127/138 209/66/138 215/126/138 216/128/138
f 212/65/139 211/64/139 217/125/139 218/124/139
f 209/66/140 212/65/140 218/124/140 215/126/140
f 214/66/141 210/127/141 216/128/141 220/126/141
f 221/129/142 226/67/142 232/130/142 227/131/142
f 223/36/143 225/67/143 231/130/143 229/132/143
f 39/33/144 54/34/144 223/36/144 222/35/144
f 109/52/145 7/71/145 221/129/145 225/67/145
f 54/34/135 109/52/135 225/67/135 223/36/135
f 7/71/146 110/52/146 226/67/146 221/129/146
f 228/133/98 229/132/98 231/130/98 227/131/98
f 230/132/96 228/133/96 227/131/96 232/130/96
f 226/67/147 224/36/147 230/132/147 232/130/147
f 224/36/148 222/35/148 228/133/148 230/132/148
f 225/67/149 221/129/149 227/131/149 231/130/149
f 222/35/150 223/36/150 229/132/150 228/133/150
